<?xml version="1.0" encoding="UTF-8" ?>
<!DOCTYPE svg PUBLIC "-//W3C//DTD SVG 1.1//EN" "http://www.w3.org/Graphics/SVG/1.1/DTD/svg11.dtd">
<svg width="580pt" height="207pt" viewBox="0 0 580 207" version="1.1" xmlns="http://www.w3.org/2000/svg">
<g id="#ffffffff">
</g>
<g id="#7a2524ff">
<path fill="#7a2524" opacity="1.00" d=" M 513.95 61.94 C 515.30 59.88 518.00 60.46 520.09 60.49 C 521.03 60.76 523.03 60.54 522.47 62.11 C 521.78 62.29 520.42 62.65 519.73 62.83 C 519.66 64.59 519.63 66.36 519.59 68.13 C 520.71 68.93 521.84 69.72 522.95 70.55 C 520.69 70.88 518.39 71.51 516.11 71.05 C 512.24 70.15 511.14 64.48 513.95 61.94 Z" />
<path fill="#7a2524" opacity="1.00" d=" M 336.73 64.05 C 338.71 64.03 340.69 64.02 342.67 64.03 C 342.89 65.51 343.11 67.00 343.35 68.48 C 345.39 68.44 347.44 68.44 349.49 68.47 C 349.60 66.95 349.70 65.43 349.82 63.91 C 351.09 63.93 352.34 64.07 353.58 64.33 C 356.09 69.86 358.39 75.49 360.65 81.13 C 359.16 81.38 357.68 81.60 356.20 81.82 C 356.19 83.98 356.16 86.14 356.14 88.30 C 358.74 88.45 361.39 88.48 363.92 87.71 C 364.56 89.69 365.28 91.65 365.99 93.62 C 364.12 93.74 362.25 93.85 360.38 94.00 C 360.42 96.27 360.40 98.55 360.34 100.82 C 362.50 100.80 364.66 100.80 366.82 100.83 C 367.08 100.09 367.61 98.63 367.88 97.89 C 369.29 100.53 370.42 103.31 371.41 106.14 C 369.24 106.19 367.07 106.19 364.91 106.24 C 364.85 108.57 364.81 110.90 364.79 113.23 C 367.09 113.20 369.39 113.15 371.69 113.07 C 371.78 111.65 371.87 110.23 371.98 108.81 C 375.43 108.15 375.67 103.83 377.20 101.26 C 383.20 89.04 388.98 76.70 394.20 64.11 C 394.71 64.10 395.74 64.06 396.26 64.05 C 396.31 65.50 396.38 66.96 396.45 68.42 C 398.69 68.40 400.93 68.39 403.18 68.35 C 403.26 66.90 403.34 65.45 403.42 64.00 C 405.76 63.98 408.10 63.97 410.45 63.98 C 410.43 65.36 410.40 66.75 410.36 68.14 C 408.09 68.82 405.18 68.87 403.65 70.92 C 403.38 73.27 403.41 75.64 403.64 77.99 C 405.31 90.71 405.65 103.61 407.78 116.26 C 407.88 120.06 411.96 120.59 414.80 121.52 C 414.79 122.87 414.77 124.21 414.77 125.56 C 406.50 125.57 398.23 125.53 389.97 125.59 C 389.96 124.20 389.97 122.82 390.02 121.44 C 392.11 120.87 394.16 120.09 395.75 118.56 C 397.55 116.85 400.56 118.45 402.36 116.91 C 402.49 114.87 402.43 112.83 402.44 110.79 C 400.06 110.76 397.69 110.74 395.32 110.69 C 395.31 108.29 395.30 105.89 395.29 103.49 C 397.43 103.43 399.56 103.35 401.70 103.18 C 401.61 100.90 401.57 98.62 401.56 96.34 C 399.42 96.34 397.28 96.44 395.15 96.22 C 393.43 94.87 393.88 92.15 393.54 90.18 C 395.34 90.17 397.14 90.17 398.95 90.16 C 398.95 87.89 398.94 85.61 398.90 83.34 C 396.66 83.36 394.43 83.35 392.21 83.29 C 383.67 97.03 377.75 112.12 370.59 126.58 C 370.02 126.61 368.86 126.69 368.28 126.72 C 361.99 111.72 355.18 96.94 349.12 81.84 C 348.73 81.65 347.96 81.28 347.57 81.10 C 346.94 91.23 345.48 101.38 346.55 111.55 C 344.78 111.64 343.02 111.71 341.26 111.83 C 341.28 114.06 341.31 116.30 341.33 118.53 C 343.54 118.51 345.76 118.41 347.98 118.60 C 349.93 119.54 351.70 120.81 353.52 121.96 C 353.36 123.16 353.19 124.35 353.01 125.55 C 345.07 125.50 337.13 125.68 329.19 125.47 C 329.23 124.19 329.12 122.89 329.44 121.64 C 331.88 119.74 334.75 118.00 335.67 114.84 C 339.26 103.93 341.07 92.48 341.80 81.04 C 342.07 77.73 343.26 74.38 342.45 71.06 C 341.52 68.70 338.57 68.82 336.54 68.03 C 336.59 66.70 336.66 65.38 336.73 64.05 Z" />
<path fill="#7a2524" opacity="1.00" d=" M 416.44 82.37 C 422.81 81.25 429.32 79.54 435.80 80.04 C 435.80 83.02 434.54 85.71 433.50 88.43 C 431.88 88.50 430.27 88.56 428.68 88.64 C 428.64 90.87 428.63 93.10 428.63 95.33 C 430.35 95.38 432.07 95.43 433.80 95.48 C 433.82 97.28 433.84 99.07 433.88 100.86 C 431.81 100.99 429.75 101.08 427.70 101.18 C 427.72 103.39 427.73 105.60 427.73 107.81 C 429.80 107.90 431.88 107.97 433.96 108.07 C 433.89 109.53 433.83 110.98 433.77 112.44 C 431.75 112.47 429.74 112.49 427.73 112.54 C 427.73 114.80 427.76 117.06 427.80 119.32 C 432.62 118.56 438.65 121.70 442.38 117.39 C 444.39 115.43 445.74 112.93 447.05 110.48 C 449.04 112.84 452.17 112.34 454.92 112.25 C 454.90 109.97 454.88 107.69 454.85 105.42 C 452.96 105.37 451.08 105.31 449.20 105.21 C 449.78 102.67 450.36 100.13 450.70 97.55 C 452.09 97.27 453.49 97.00 454.90 96.74 C 454.88 94.61 454.87 92.48 454.85 90.35 C 453.59 90.27 452.34 90.20 451.09 90.14 C 450.36 89.06 449.65 87.98 448.91 86.91 C 447.35 86.78 445.80 86.64 444.25 86.48 C 444.24 85.13 444.24 83.77 444.25 82.41 C 450.44 81.32 456.66 79.67 462.97 79.86 C 462.95 83.34 460.87 86.41 461.15 89.92 C 461.25 99.69 460.93 109.47 461.41 119.23 C 463.40 119.06 465.37 118.67 467.35 118.33 C 467.94 119.86 469.05 121.94 467.17 123.08 C 461.82 125.08 456.40 127.64 450.55 127.47 C 450.36 123.59 450.43 119.71 450.35 115.83 C 446.10 120.20 442.20 125.71 435.89 127.12 C 432.92 127.38 429.46 128.01 426.95 126.01 C 424.77 124.35 423.57 121.64 423.46 118.95 C 423.21 109.01 423.71 99.05 423.25 89.12 C 422.29 86.24 418.79 86.97 416.45 86.53 C 416.45 85.14 416.44 83.76 416.44 82.37 M 452.32 115.16 C 452.36 117.35 452.38 119.54 452.41 121.73 C 454.67 121.77 456.93 121.79 459.20 121.79 C 459.25 119.57 459.24 117.36 459.21 115.14 C 456.91 115.14 454.62 115.14 452.32 115.16 Z" />
<path fill="#7a2524" opacity="1.00" d=" M 478.01 82.93 C 484.49 78.23 493.30 79.17 500.53 81.45 C 500.61 86.18 500.61 90.92 500.61 95.65 C 498.78 95.59 496.96 95.55 495.15 95.53 C 494.89 94.10 494.27 92.55 495.17 91.22 C 496.34 89.07 495.91 86.56 495.99 84.22 C 493.76 84.27 491.53 84.27 489.31 84.22 C 489.21 84.78 489.00 85.90 488.90 86.46 C 486.37 85.85 483.84 86.52 481.87 88.21 C 483.52 95.03 491.21 97.08 496.10 101.09 C 496.15 103.37 496.17 105.66 496.15 107.96 C 498.51 107.95 500.89 108.00 503.26 108.14 C 503.22 111.19 503.77 114.45 502.24 117.25 C 499.18 123.59 492.02 127.77 485.01 127.38 C 480.35 127.57 475.82 126.22 471.49 124.64 C 471.37 119.75 471.47 114.85 471.38 109.95 C 473.09 110.06 475.02 109.35 476.58 110.24 C 477.70 113.04 478.44 116.08 480.56 118.36 C 482.58 120.18 481.96 123.02 482.15 125.44 C 484.40 125.43 486.64 125.42 488.90 125.44 C 488.92 123.78 488.96 122.12 489.01 120.47 C 491.54 119.91 494.22 117.95 494.23 115.15 C 493.37 110.71 489.13 108.37 485.56 106.29 C 485.42 104.58 485.32 102.87 485.22 101.16 C 481.85 100.86 477.49 102.04 475.40 98.56 C 472.70 96.26 473.18 92.62 473.22 89.46 C 474.58 89.34 475.94 89.23 477.31 89.12 C 477.56 87.09 477.07 84.81 478.01 82.93 Z" />
<path fill="#7a2524" opacity="1.00" d=" M 506.48 84.12 C 512.30 82.43 517.86 78.92 524.16 79.74 C 524.14 81.69 524.13 83.64 524.08 85.58 C 522.65 85.81 521.23 86.05 519.81 86.28 C 519.68 88.11 519.52 89.96 519.66 91.80 C 520.57 93.16 522.59 92.68 523.98 93.24 C 524.10 94.78 524.20 96.32 524.33 97.86 C 522.47 98.00 520.62 98.13 518.78 98.27 C 518.76 100.46 518.75 102.65 518.73 104.84 C 520.54 105.00 522.36 105.16 524.18 105.34 C 524.16 106.79 524.13 108.24 524.10 109.70 C 522.01 109.80 519.93 109.85 517.84 109.90 C 517.85 112.13 517.84 114.35 517.83 116.58 C 519.88 116.72 521.94 116.81 524.00 116.91 C 525.36 119.48 527.95 120.78 530.46 121.99 C 530.34 123.18 530.22 124.38 530.11 125.58 C 522.22 125.51 514.34 125.60 506.46 125.56 C 506.47 124.22 506.48 122.88 506.49 121.54 C 509.51 120.78 513.21 119.77 513.37 115.99 C 513.50 106.71 513.71 97.38 513.18 88.10 C 511.10 88.23 509.02 88.40 506.95 88.56 C 506.73 87.08 506.58 85.60 506.48 84.12 Z" />
<path fill="#7a2524" opacity="1.00" d=" M 546.44 81.62 C 553.86 78.50 562.62 79.03 569.92 82.24 C 571.41 82.59 571.10 84.30 570.29 85.16 C 568.30 87.83 569.22 91.46 571.45 93.68 C 567.21 94.28 564.00 90.51 560.99 88.07 C 558.98 86.86 558.82 84.48 558.44 82.41 C 556.40 82.44 554.37 82.42 552.35 82.36 C 552.15 83.73 551.96 85.11 551.77 86.48 C 546.18 87.55 544.24 93.49 539.62 95.99 C 540.60 101.01 540.74 106.11 539.53 111.11 C 543.84 112.72 546.55 116.64 548.90 120.38 C 554.06 120.24 559.14 118.83 564.33 119.53 C 564.50 115.13 566.78 110.02 571.90 110.13 C 571.84 112.08 572.65 114.50 570.92 115.96 C 566.36 120.98 561.05 126.17 554.08 127.25 C 549.92 127.51 545.39 127.75 541.77 125.31 C 535.02 121.52 531.23 113.60 531.63 105.99 C 531.23 95.88 537.58 86.18 546.44 81.62 Z" />
</g>
</svg>
