<?xml version="1.0" encoding="UTF-8" ?>
<!DOCTYPE svg PUBLIC "-//W3C//DTD SVG 1.1//EN" "http://www.w3.org/Graphics/SVG/1.1/DTD/svg11.dtd">
<svg width="580pt" height="207pt" viewBox="0 0 580 207" version="1.1" xmlns="http://www.w3.org/2000/svg">
<g id="#ffffffff">
</g>
<g id="#7a2524ff">
<path fill="#7a2524" opacity="1.00" d=" M 158.69 1.21 C 159.87 1.15 161.05 1.12 162.23 1.11 C 162.37 6.60 163.52 12.46 167.48 16.54 C 174.33 23.44 181.17 30.57 185.83 39.19 C 190.29 47.67 191.24 57.67 189.17 66.97 C 188.54 69.07 189.25 71.16 189.88 73.16 C 193.40 84.18 191.25 96.40 186.03 106.50 L 183.75 107.54 C 187.65 97.99 190.58 87.27 187.49 77.07 C 186.07 71.44 181.87 67.12 177.33 63.77 C 172.33 60.13 167.32 56.50 162.24 52.96 C 162.29 72.17 162.19 91.39 162.30 110.60 C 161.54 110.62 160.02 110.66 159.26 110.68 C 159.31 113.65 159.32 116.62 159.36 119.59 C 158.66 120.18 157.97 120.78 157.28 121.37 C 155.91 121.32 154.55 121.28 153.20 121.24 C 153.26 122.68 153.34 124.11 153.42 125.54 C 149.36 128.76 144.30 131.00 139.03 130.68 C 133.17 130.97 127.82 125.89 127.71 120.03 C 127.70 111.04 134.57 103.74 142.17 99.88 C 147.31 97.15 153.73 97.22 158.85 99.99 C 158.66 67.06 158.94 34.13 158.69 1.21 M 162.23 25.06 C 162.65 34.74 167.51 43.92 174.51 50.49 C 178.98 55.19 183.78 59.89 186.37 65.95 C 187.25 60.06 187.11 53.82 184.56 48.33 C 180.02 38.24 171.25 31.03 162.23 25.06 Z" />
</g>
</svg>
