<?xml version="1.0" standalone="no"?>
<!DOCTYPE svg PUBLIC "-//W3C//DTD SVG 20010904//EN"
 "http://www.w3.org/TR/2001/REC-SVG-20010904/DTD/svg10.dtd">
<svg version="1.0" xmlns="http://www.w3.org/2000/svg"
 width="280.000000pt" height="142.000000pt" viewBox="0 0 280.000000 142.000000"
 preserveAspectRatio="xMidYMid meet">
<metadata>
Created by potrace 1.15, written by Peter Selinger 2001-2017
</metadata>
<g transform="translate(0.000000,142.000000) scale(0.100000,-0.100000)"
fill="#000000" stroke="none">
<path d="M898 543 c-15 -4 -18 -17 -18 -89 l0 -84 61 0 c54 0 64 3 90 29 53
54 31 123 -46 141 -42 10 -59 11 -87 3z m95 -24 c30 -16 37 -28 37 -66 0 -38
-24 -58 -82 -68 l-38 -7 0 76 0 76 31 0 c17 0 40 -5 52 -11z"/>
<path d="M1723 535 c-105 -45 -41 -195 71 -164 89 25 99 139 15 168 -40 14
-47 13 -86 -4z m96 -31 c26 -33 27 -65 4 -92 -44 -52 -123 -24 -123 44 0 69
78 101 119 48z"/>
</g>
</svg>
